<?xml version="1.0" encoding="UTF-8" standalone="no"?><svg xmlns="http://www.w3.org/2000/svg" xmlns:xlink="http://www.w3.org/1999/xlink" contentScriptType="application/ecmascript" contentStyleType="text/css" height="654px" preserveAspectRatio="none" style="width:853px;height:654px;" version="1.1" viewBox="0 0 853 654" width="853px" zoomAndPan="magnify"><defs><filter height="300%" id="f1fsn6lejg66gf" width="300%" x="-1" y="-1"><feGaussianBlur result="blurOut" stdDeviation="2.0"/><feColorMatrix in="blurOut" result="blurOut2" type="matrix" values="0 0 0 0 0 0 0 0 0 0 0 0 0 0 0 0 0 0 .4 0"/><feOffset dx="4.0" dy="4.0" in="blurOut2" result="blurOut3"/><feBlend in="SourceGraphic" in2="blurOut3" mode="normal"/></filter></defs><g><line style="stroke: #A80036; stroke-width: 1.0; stroke-dasharray: 5.0,5.0;" x1="100" x2="100" y1="99.1016" y2="642.0156"/><line style="stroke: #A80036; stroke-width: 1.0; stroke-dasharray: 5.0,5.0;" x1="337.5" x2="337.5" y1="99.1016" y2="642.0156"/><line style="stroke: #A80036; stroke-width: 1.0; stroke-dasharray: 5.0,5.0;" x1="648.5" x2="648.5" y1="99.1016" y2="642.0156"/><text fill="#000000" font-family="sans-serif" font-size="25" lengthAdjust="spacingAndGlyphs" textLength="179" x="8" y="93.2056">Пользователь</text><ellipse cx="100.5" cy="13" fill="#FEFECE" filter="url(#f1fsn6lejg66gf)" rx="8" ry="8" style="stroke: #A80036; stroke-width: 2.0;"/><path d="M100.5,21 L100.5,48 M87.5,29 L113.5,29 M100.5,48 L87.5,63 M100.5,48 L113.5,63 " fill="none" filter="url(#f1fsn6lejg66gf)" style="stroke: #A80036; stroke-width: 2.0;"/><text fill="#000000" font-family="sans-serif" font-size="25" lengthAdjust="spacingAndGlyphs" textLength="166" x="251.5" y="93.2056">Приложение</text><ellipse cx="337.5" cy="54" fill="#FEFECE" filter="url(#f1fsn6lejg66gf)" rx="12" ry="12" style="stroke: #A80036; stroke-width: 2.0;"/><line style="stroke: #A80036; stroke-width: 2.0;" x1="325.5" x2="349.5" y1="68" y2="68"/><text fill="#000000" font-family="sans-serif" font-size="25" lengthAdjust="spacingAndGlyphs" textLength="36" x="627.5" y="93.2056">БД</text><path d="M630.5,34 C630.5,24 648.5,24 648.5,24 C648.5,24 666.5,24 666.5,34 L666.5,60 C666.5,70 648.5,70 648.5,70 C648.5,70 630.5,70 630.5,60 L630.5,34 " fill="#FEFECE" filter="url(#f1fsn6lejg66gf)" style="stroke: #000000; stroke-width: 1.5;"/><path d="M630.5,34 C630.5,44 648.5,44 648.5,44 C648.5,44 666.5,44 666.5,34 " fill="none" style="stroke: #000000; stroke-width: 1.5;"/><polygon fill="#A80036" points="325.5,140.2031,335.5,144.2031,325.5,148.2031,329.5,144.2031" style="stroke: #A80036; stroke-width: 1.0;"/><line style="stroke: #A80036; stroke-width: 1.0;" x1="100.5" x2="331.5" y1="144.2031" y2="144.2031"/><text fill="#000000" font-family="sans-serif" font-size="25" lengthAdjust="spacingAndGlyphs" textLength="93" x="172.5" y="136.3071">Запрос</text><polygon fill="#A80036" points="636.5,208.3047,646.5,212.3047,636.5,216.3047,640.5,212.3047" style="stroke: #A80036; stroke-width: 1.0;"/><line style="stroke: #A80036; stroke-width: 1.0;" x1="337.5" x2="642.5" y1="212.3047" y2="212.3047"/><text fill="#000000" font-family="sans-serif" font-size="25" lengthAdjust="spacingAndGlyphs" textLength="123" x="431.5" y="204.4087">ID сессии</text><polygon fill="#A80036" points="348.5,251.4063,338.5,255.4063,348.5,259.4063,344.5,255.4063" style="stroke: #A80036; stroke-width: 1.0;"/><line style="stroke: #A80036; stroke-width: 1.0;" x1="342.5" x2="647.5" y1="255.4063" y2="255.4063"/><text fill="#000000" font-family="sans-serif" font-size="25" lengthAdjust="spacingAndGlyphs" textLength="198" x="394" y="247.5103">Данные сессии</text><polygon fill="#A80036" points="636.5,319.5078,646.5,323.5078,636.5,327.5078,640.5,323.5078" style="stroke: #A80036; stroke-width: 1.0;"/><line style="stroke: #A80036; stroke-width: 1.0;" x1="337.5" x2="642.5" y1="323.5078" y2="323.5078"/><text fill="#000000" font-family="sans-serif" font-size="25" lengthAdjust="spacingAndGlyphs" textLength="212" x="387" y="315.6118">ID пользователя</text><polygon fill="#A80036" points="348.5,362.6094,338.5,366.6094,348.5,370.6094,344.5,366.6094" style="stroke: #A80036; stroke-width: 1.0;"/><line style="stroke: #A80036; stroke-width: 1.0;" x1="342.5" x2="647.5" y1="366.6094" y2="366.6094"/><text fill="#000000" font-family="sans-serif" font-size="25" lengthAdjust="spacingAndGlyphs" textLength="287" x="349.5" y="358.7134">Данные пользователя</text><path d="M342,404.6094 L342,443.6094 L841,443.6094 L841,414.6094 L831,404.6094 L342,404.6094 " fill="#FBFB77" filter="url(#f1fsn6lejg66gf)" style="stroke: #A80036; stroke-width: 1.0;"/><path d="M831,404.6094 L831,414.6094 L841,414.6094 L831,404.6094 " fill="#FBFB77" style="stroke: #A80036; stroke-width: 1.0;"/><text fill="#000000" font-family="sans-serif" font-size="25" lengthAdjust="spacingAndGlyphs" textLength="478" x="348" y="432.8149">Основная логика обработки запроса</text><polygon fill="#A80036" points="636.5,508.8125,646.5,512.8125,636.5,516.8125,640.5,512.8125" style="stroke: #A80036; stroke-width: 1.0;"/><line style="stroke: #A80036; stroke-width: 1.0;" x1="337.5" x2="642.5" y1="512.8125" y2="512.8125"/><text fill="#000000" font-family="sans-serif" font-size="25" lengthAdjust="spacingAndGlyphs" textLength="239" x="373.5" y="504.9165">Сохранение сесии</text><polygon fill="#A80036" points="348.5,551.9141,338.5,555.9141,348.5,559.9141,344.5,555.9141" style="stroke: #A80036; stroke-width: 1.0;"/><line style="stroke: #A80036; stroke-width: 1.0;" x1="342.5" x2="647.5" y1="555.9141" y2="555.9141"/><text fill="#000000" font-family="sans-serif" font-size="25" lengthAdjust="spacingAndGlyphs" textLength="38" x="474" y="548.0181">ОК</text><polygon fill="#A80036" points="111.5,620.0156,101.5,624.0156,111.5,628.0156,107.5,624.0156" style="stroke: #A80036; stroke-width: 1.0;"/><line style="stroke: #A80036; stroke-width: 1.0;" x1="105.5" x2="336.5" y1="624.0156" y2="624.0156"/><text fill="#000000" font-family="sans-serif" font-size="25" lengthAdjust="spacingAndGlyphs" textLength="213" x="112.5" y="616.1196">Ответ на запрос</text><!--
@startuml
skinparam defaultFontSize 25
skinparam sequenceMessageAlign center
hide footbox

actor Пользователь
entity Приложение
database БД

Пользователь -> Приложение : Запрос
|||
Приложение -> БД : ID сессии
БД -> Приложение : Данные сессии
|||
Приложение -> БД : ID пользователя
БД -> Приложение : Данные пользователя
|||
note right of Приложение: Основная логика обработки запроса
|||
Приложение -> БД : Сохранение сесии
БД -> Приложение : ОК
|||
Приложение -> Пользователь : Ответ на запрос
@enduml

PlantUML version 1.2018.05(Sat May 05 20:00:17 UTC 2018)
(GPL source distribution)
Java Runtime: Java(TM) SE Runtime Environment
JVM: Java HotSpot(TM) 64-Bit Server VM
Java Version: 1.7.0_25-b15
Operating System: Linux
Default Encoding: UTF-8
Language: en
Country: US
--></g></svg>