<?xml version="1.0" encoding="UTF-8" standalone="no"?><svg xmlns="http://www.w3.org/2000/svg" xmlns:xlink="http://www.w3.org/1999/xlink" contentScriptType="application/ecmascript" contentStyleType="text/css" height="548px" preserveAspectRatio="none" style="width:871px;height:548px;" version="1.1" viewBox="0 0 871 548" width="871px" zoomAndPan="magnify"><defs><filter height="300%" id="f1rgs9izwtn657" width="300%" x="-1" y="-1"><feGaussianBlur result="blurOut" stdDeviation="2.0"/><feColorMatrix in="blurOut" result="blurOut2" type="matrix" values="0 0 0 0 0 0 0 0 0 0 0 0 0 0 0 0 0 0 .4 0"/><feOffset dx="4.0" dy="4.0" in="blurOut2" result="blurOut3"/><feBlend in="SourceGraphic" in2="blurOut3" mode="normal"/></filter></defs><g><line style="stroke: #A80036; stroke-width: 1.0; stroke-dasharray: 5.0,5.0;" x1="100" x2="100" y1="99.1016" y2="536.9141"/><line style="stroke: #A80036; stroke-width: 1.0; stroke-dasharray: 5.0,5.0;" x1="355.5" x2="355.5" y1="99.1016" y2="536.9141"/><line style="stroke: #A80036; stroke-width: 1.0; stroke-dasharray: 5.0,5.0;" x1="611.5" x2="611.5" y1="99.1016" y2="536.9141"/><text fill="#000000" font-family="sans-serif" font-size="25" lengthAdjust="spacingAndGlyphs" textLength="179" x="8" y="93.2056">Пользователь</text><ellipse cx="100.5" cy="13" fill="#FEFECE" filter="url(#f1rgs9izwtn657)" rx="8" ry="8" style="stroke: #A80036; stroke-width: 2.0;"/><path d="M100.5,21 L100.5,48 M87.5,29 L113.5,29 M100.5,48 L87.5,63 M100.5,48 L113.5,63 " fill="none" filter="url(#f1rgs9izwtn657)" style="stroke: #A80036; stroke-width: 2.0;"/><text fill="#000000" font-family="sans-serif" font-size="25" lengthAdjust="spacingAndGlyphs" textLength="166" x="269.5" y="93.2056">Приложение</text><ellipse cx="355.5" cy="54" fill="#FEFECE" filter="url(#f1rgs9izwtn657)" rx="12" ry="12" style="stroke: #A80036; stroke-width: 2.0;"/><line style="stroke: #A80036; stroke-width: 2.0;" x1="343.5" x2="367.5" y1="68" y2="68"/><text fill="#000000" font-family="sans-serif" font-size="25" lengthAdjust="spacingAndGlyphs" textLength="36" x="590.5" y="93.2056">БД</text><path d="M593.5,34 C593.5,24 611.5,24 611.5,24 C611.5,24 629.5,24 629.5,34 L629.5,60 C629.5,70 611.5,70 611.5,70 C611.5,70 593.5,70 593.5,60 L593.5,34 " fill="#FEFECE" filter="url(#f1rgs9izwtn657)" style="stroke: #000000; stroke-width: 1.5;"/><path d="M593.5,34 C593.5,44 611.5,44 611.5,44 C611.5,44 629.5,44 629.5,34 " fill="none" style="stroke: #000000; stroke-width: 1.5;"/><polygon fill="#A80036" points="343.5,140.2031,353.5,144.2031,343.5,148.2031,347.5,144.2031" style="stroke: #A80036; stroke-width: 1.0;"/><line style="stroke: #A80036; stroke-width: 1.0;" x1="100.5" x2="349.5" y1="144.2031" y2="144.2031"/><text fill="#000000" font-family="sans-serif" font-size="25" lengthAdjust="spacingAndGlyphs" textLength="201" x="127.5" y="136.3071">Логин и пароль</text><polygon fill="#A80036" points="599.5,183.3047,609.5,187.3047,599.5,191.3047,603.5,187.3047" style="stroke: #A80036; stroke-width: 1.0;"/><line style="stroke: #A80036; stroke-width: 1.0;" x1="355.5" x2="605.5" y1="187.3047" y2="187.3047"/><text fill="#000000" font-family="sans-serif" font-size="25" lengthAdjust="spacingAndGlyphs" textLength="231" x="368" y="179.4087">Проверка данных</text><polygon fill="#A80036" points="366.5,226.4063,356.5,230.4063,366.5,234.4063,362.5,230.4063" style="stroke: #A80036; stroke-width: 1.0;"/><line style="stroke: #A80036; stroke-width: 1.0;" x1="360.5" x2="610.5" y1="230.4063" y2="230.4063"/><text fill="#000000" font-family="sans-serif" font-size="25" lengthAdjust="spacingAndGlyphs" textLength="38" x="464.5" y="222.5103">ОК</text><polygon fill="#A80036" points="111.5,269.5078,101.5,273.5078,111.5,277.5078,107.5,273.5078" style="stroke: #A80036; stroke-width: 1.0;"/><line style="stroke: #A80036; stroke-width: 1.0;" x1="105.5" x2="354.5" y1="273.5078" y2="273.5078"/><text fill="#000000" font-family="sans-serif" font-size="25" lengthAdjust="spacingAndGlyphs" textLength="76" x="190" y="265.6118">Токен</text><polygon fill="#A80036" points="343.5,337.6094,353.5,341.6094,343.5,345.6094,347.5,341.6094" style="stroke: #A80036; stroke-width: 1.0;"/><line style="stroke: #A80036; stroke-width: 1.0;" x1="100.5" x2="349.5" y1="341.6094" y2="341.6094"/><text fill="#000000" font-family="sans-serif" font-size="25" lengthAdjust="spacingAndGlyphs" textLength="231" x="112.5" y="333.7134">Запрос с токеном</text><line style="stroke: #A80036; stroke-width: 1.0;" x1="355.5" x2="397.5" y1="384.7109" y2="384.7109"/><line style="stroke: #A80036; stroke-width: 1.0;" x1="397.5" x2="397.5" y1="384.7109" y2="397.7109"/><line style="stroke: #A80036; stroke-width: 1.0;" x1="356.5" x2="397.5" y1="397.7109" y2="397.7109"/><polygon fill="#A80036" points="366.5,393.7109,356.5,397.7109,366.5,401.7109,362.5,397.7109" style="stroke: #A80036; stroke-width: 1.0;"/><text fill="#000000" font-family="sans-serif" font-size="25" lengthAdjust="spacingAndGlyphs" textLength="242" x="362.5" y="376.8149">Валидация токена</text><path d="M360,410.7109 L360,449.7109 L859,449.7109 L859,420.7109 L849,410.7109 L360,410.7109 " fill="#FBFB77" filter="url(#f1rgs9izwtn657)" style="stroke: #A80036; stroke-width: 1.0;"/><path d="M849,410.7109 L849,420.7109 L859,420.7109 L849,410.7109 " fill="#FBFB77" style="stroke: #A80036; stroke-width: 1.0;"/><text fill="#000000" font-family="sans-serif" font-size="25" lengthAdjust="spacingAndGlyphs" textLength="478" x="366" y="438.9165">Основная логика обработки запроса</text><polygon fill="#A80036" points="111.5,514.9141,101.5,518.9141,111.5,522.9141,107.5,518.9141" style="stroke: #A80036; stroke-width: 1.0;"/><line style="stroke: #A80036; stroke-width: 1.0;" x1="105.5" x2="354.5" y1="518.9141" y2="518.9141"/><text fill="#000000" font-family="sans-serif" font-size="25" lengthAdjust="spacingAndGlyphs" textLength="213" x="121.5" y="511.0181">Ответ на запрос</text><!--
@startuml
skinparam defaultFontSize 25
skinparam sequenceMessageAlign center
hide footbox

actor Пользователь
entity Приложение
database БД

Пользователь -> Приложение : Логин и пароль
Приложение -> БД : Проверка данных
БД -> Приложение : ОК
Приложение -> Пользователь: Токен
|||
Пользователь -> Приложение : Запрос с токеном
Приложение -> Приложение : Валидация токена
note right of Приложение: Основная логика обработки запроса
|||
Приложение -> Пользователь : Ответ на запрос
@enduml

PlantUML version 1.2018.05(Sat May 05 20:00:17 UTC 2018)
(GPL source distribution)
Java Runtime: Java(TM) SE Runtime Environment
JVM: Java HotSpot(TM) 64-Bit Server VM
Java Version: 1.7.0_25-b15
Operating System: Linux
Default Encoding: UTF-8
Language: en
Country: US
--></g></svg>